<svg width="24" height="24" viewBox="0 0 24 24" fill="none" xmlns="http://www.w3.org/2000/svg">
<path d="M13.4139 12L19.2069 6.207C19.5969 5.817 19.5969 5.184 19.2069 4.793C18.8169 4.402 18.1839 4.403 17.7929 4.793L11.9999 10.586L6.20687 4.793C5.81687 4.403 5.18388 4.403 4.79288 4.793C4.40188 5.183 4.40288 5.816 4.79288 6.207L10.5859 12L4.79288 17.793C4.40288 18.183 4.40288 18.816 4.79288 19.207C4.98788 19.402 5.24287 19.5 5.49987 19.5C5.75687 19.5 6.01187 19.402 6.20687 19.207L11.9999 13.414L17.7929 19.207C17.9879 19.402 18.2429 19.5 18.4999 19.5C18.7569 19.5 19.0119 19.402 19.2069 19.207C19.5969 18.817 19.5969 18.184 19.2069 17.793L13.4139 12Z" fill="white"/>
</svg>
