<svg width="24" height="24" viewBox="0 0 24 24" fill="none" xmlns="http://www.w3.org/2000/svg">
<path d="M22.58 7.35001L12.475 1.89701C12.178 1.73701 11.821 1.73701 11.525 1.89701L1.42499 7.35001C0.938988 7.61401 0.757988 8.22001 1.01999 8.70601C1.19999 9.04101 1.54499 9.23101 1.89999 9.23101C2.05999 9.23101 2.22399 9.19301 2.37499 9.11101L3.10899 8.71501L4.69899 19.965C4.91499 21.179 6.00899 22.027 7.35899 22.027H16.641C17.991 22.027 19.085 21.179 19.303 19.939L20.891 8.71401L21.628 9.11201C22.113 9.37501 22.72 9.19401 22.982 8.70801C23.245 8.22201 23.062 7.61501 22.578 7.35301L22.58 7.35001ZM12 15.435C10.205 15.435 8.74999 13.98 8.74999 12.185C8.74999 10.39 10.205 8.93501 12 8.93501C13.795 8.93501 15.25 10.39 15.25 12.185C15.25 13.98 13.795 15.435 12 15.435Z" fill="#FF6600"/>
</svg>
