<svg width="31" height="30" viewBox="0 0 31 30" fill="none" xmlns="http://www.w3.org/2000/svg">
<path d="M18.425 2.80251L13.24 2.79001H13.2375C7.77005 2.79001 3.48755 7.07376 3.48755 12.5425C3.48755 17.665 7.47005 21.55 12.8188 21.755V26.54C12.8188 26.675 12.8738 26.8975 12.9688 27.0438C13.1463 27.325 13.4488 27.4775 13.7588 27.4775C13.9313 27.4775 14.105 27.43 14.2613 27.33C14.5913 27.12 22.3525 22.155 24.3713 20.4475C26.7488 18.435 28.1713 15.485 28.175 12.5575V12.5363C28.1675 7.07751 23.8875 2.80251 18.425 2.80126V2.80251ZM23.1588 19.0175C21.7413 20.2175 17.0813 23.2738 14.6938 24.8213V20.8375C14.6938 20.32 14.275 19.9 13.7563 19.9H13.2613C8.6863 19.9 5.3638 16.805 5.3638 12.5425C5.3638 8.12501 8.8238 4.66501 13.2388 4.66501L18.4225 4.67751H18.425C22.84 4.67751 26.3 8.13501 26.3025 12.5475C26.2988 14.935 25.125 17.3525 23.16 19.0175H23.1588Z" fill="#6C757D"/>
</svg>
