<svg xmlns="http://www.w3.org/2000/svg" xmlns:xlink="http://www.w3.org/1999/xlink" width="40" zoomAndPan="magnify" viewBox="0 0 30 30.000001" height="40" preserveAspectRatio="xMidYMid meet" version="1.0"><defs><clipPath id="002024cd85"><path d="M 0.484375 0.21875 L 28.789062 0.21875 L 28.789062 28.523438 L 0.484375 28.523438 Z M 0.484375 0.21875 " clip-rule="nonzero"/></clipPath></defs><g clip-path="url(#002024cd85)"><path fill="#737373" d="M 14.636719 0.21875 C 13.707031 0.21875 12.789062 0.308594 11.875 0.492188 C 10.964844 0.671875 10.078125 0.941406 9.222656 1.296875 C 8.363281 1.652344 7.546875 2.085938 6.773438 2.605469 C 6 3.121094 5.285156 3.707031 4.628906 4.363281 C 3.972656 5.019531 3.386719 5.734375 2.867188 6.507812 C 2.351562 7.28125 1.917969 8.097656 1.5625 8.957031 C 1.207031 9.8125 0.9375 10.699219 0.753906 11.609375 C 0.574219 12.523438 0.484375 13.441406 0.484375 14.371094 C 0.484375 15.300781 0.574219 16.222656 0.753906 17.132812 C 0.9375 18.042969 1.207031 18.929688 1.5625 19.789062 C 1.917969 20.648438 2.351562 21.460938 2.867188 22.234375 C 3.386719 23.007812 3.972656 23.722656 4.628906 24.378906 C 5.285156 25.035156 6 25.625 6.773438 26.140625 C 7.546875 26.65625 8.363281 27.09375 9.222656 27.449219 C 10.078125 27.804688 10.964844 28.070312 11.875 28.253906 C 12.789062 28.433594 13.707031 28.523438 14.636719 28.523438 C 15.566406 28.523438 16.488281 28.433594 17.398438 28.253906 C 18.308594 28.070312 19.195312 27.804688 20.054688 27.449219 C 20.910156 27.09375 21.726562 26.65625 22.5 26.140625 C 23.273438 25.625 23.988281 25.035156 24.644531 24.378906 C 25.300781 23.722656 25.890625 23.007812 26.40625 22.234375 C 26.921875 21.460938 27.355469 20.648438 27.714844 19.789062 C 28.070312 18.929688 28.335938 18.042969 28.519531 17.132812 C 28.699219 16.222656 28.789062 15.300781 28.789062 14.371094 C 28.789062 13.441406 28.699219 12.523438 28.515625 11.613281 C 28.332031 10.699219 28.066406 9.816406 27.707031 8.957031 C 27.351562 8.101562 26.917969 7.285156 26.398438 6.511719 C 25.882812 5.738281 25.296875 5.027344 24.640625 4.367188 C 23.984375 3.710938 23.269531 3.125 22.496094 2.609375 C 21.722656 2.09375 20.910156 1.65625 20.050781 1.300781 C 19.191406 0.945312 18.308594 0.675781 17.398438 0.492188 C 16.484375 0.3125 15.566406 0.21875 14.636719 0.21875 Z M 14.636719 26.636719 C 13.832031 26.636719 13.035156 26.558594 12.242188 26.402344 C 11.453125 26.246094 10.6875 26.011719 9.941406 25.703125 C 9.199219 25.394531 8.492188 25.019531 7.824219 24.570312 C 7.152344 24.125 6.53125 23.613281 5.964844 23.046875 C 5.394531 22.476562 4.886719 21.855469 4.4375 21.1875 C 3.992188 20.515625 3.613281 19.808594 3.304688 19.066406 C 2.996094 18.320312 2.765625 17.554688 2.605469 16.765625 C 2.449219 15.976562 2.371094 15.175781 2.371094 14.371094 C 2.371094 13.566406 2.449219 12.769531 2.605469 11.980469 C 2.765625 11.1875 2.996094 10.421875 3.304688 9.679688 C 3.613281 8.933594 3.992188 8.226562 4.4375 7.558594 C 4.886719 6.886719 5.394531 6.269531 5.964844 5.699219 C 6.53125 5.128906 7.152344 4.621094 7.824219 4.171875 C 8.492188 3.726562 9.199219 3.347656 9.941406 3.039062 C 10.6875 2.730469 11.453125 2.5 12.242188 2.339844 C 13.035156 2.183594 13.832031 2.105469 14.636719 2.105469 C 15.441406 2.105469 16.238281 2.183594 17.03125 2.339844 C 17.820312 2.5 18.585938 2.730469 19.332031 3.039062 C 20.074219 3.347656 20.78125 3.726562 21.453125 4.171875 C 22.121094 4.621094 22.742188 5.128906 23.3125 5.699219 C 23.878906 6.269531 24.386719 6.886719 24.835938 7.558594 C 25.285156 8.226562 25.660156 8.933594 25.96875 9.679688 C 26.277344 10.421875 26.511719 11.1875 26.667969 11.980469 C 26.824219 12.769531 26.902344 13.566406 26.902344 14.371094 C 26.902344 15.175781 26.824219 15.972656 26.664062 16.765625 C 26.507812 17.554688 26.273438 18.320312 25.964844 19.0625 C 25.65625 19.808594 25.277344 20.515625 24.832031 21.183594 C 24.382812 21.851562 23.875 22.472656 23.304688 23.042969 C 22.738281 23.609375 22.117188 24.117188 21.449219 24.566406 C 20.777344 25.015625 20.074219 25.390625 19.328125 25.699219 C 18.585938 26.007812 17.820312 26.242188 17.027344 26.398438 C 16.238281 26.558594 15.441406 26.636719 14.636719 26.636719 Z M 14.636719 26.636719 " fill-opacity="1" fill-rule="nonzero"/></g><path fill="#737373" d="M 14.636719 3.992188 C 14.261719 3.992188 13.902344 4.066406 13.554688 4.210938 C 13.207031 4.351562 12.902344 4.558594 12.636719 4.824219 C 12.371094 5.089844 12.167969 5.394531 12.023438 5.742188 C 11.878906 6.085938 11.808594 6.449219 11.804688 6.824219 L 11.804688 14.371094 C 11.804688 14.746094 11.878906 15.109375 12.023438 15.457031 C 12.164062 15.800781 12.371094 16.109375 12.636719 16.375 C 12.902344 16.640625 13.207031 16.84375 13.554688 16.988281 C 13.902344 17.128906 14.261719 17.203125 14.636719 17.203125 C 15.011719 17.203125 15.375 17.128906 15.71875 16.988281 C 16.066406 16.84375 16.375 16.640625 16.636719 16.375 C 16.902344 16.109375 17.109375 15.800781 17.253906 15.457031 C 17.394531 15.109375 17.46875 14.746094 17.46875 14.371094 L 17.46875 6.824219 C 17.46875 6.449219 17.394531 6.085938 17.25 5.742188 C 17.109375 5.394531 16.902344 5.089844 16.636719 4.824219 C 16.371094 4.558594 16.066406 4.351562 15.71875 4.210938 C 15.375 4.066406 15.011719 3.992188 14.636719 3.992188 Z M 15.582031 14.371094 C 15.582031 14.632812 15.488281 14.855469 15.304688 15.039062 C 15.121094 15.222656 14.898438 15.316406 14.636719 15.316406 C 14.375 15.316406 14.152344 15.222656 13.96875 15.039062 C 13.785156 14.855469 13.695312 14.632812 13.695312 14.371094 L 13.695312 6.824219 C 13.695312 6.5625 13.785156 6.339844 13.96875 6.15625 C 14.152344 5.972656 14.375 5.878906 14.636719 5.878906 C 14.898438 5.878906 15.121094 5.972656 15.304688 6.15625 C 15.488281 6.339844 15.582031 6.5625 15.582031 6.824219 Z M 15.582031 14.371094 " fill-opacity="1" fill-rule="nonzero"/><path fill="#737373" d="M 14.636719 19.089844 C 14.261719 19.089844 13.902344 19.160156 13.554688 19.304688 C 13.207031 19.449219 12.902344 19.652344 12.636719 19.917969 C 12.371094 20.183594 12.164062 20.488281 12.023438 20.835938 C 11.878906 21.183594 11.804688 21.542969 11.804688 21.921875 C 11.804688 22.296875 11.878906 22.65625 12.023438 23.003906 C 12.164062 23.351562 12.371094 23.65625 12.636719 23.921875 C 12.902344 24.1875 13.207031 24.390625 13.554688 24.535156 C 13.902344 24.679688 14.261719 24.75 14.636719 24.75 C 15.011719 24.75 15.375 24.679688 15.71875 24.535156 C 16.066406 24.390625 16.375 24.1875 16.636719 23.921875 C 16.902344 23.65625 17.109375 23.351562 17.253906 23.003906 C 17.394531 22.65625 17.46875 22.296875 17.46875 21.921875 C 17.46875 21.546875 17.394531 21.183594 17.25 20.835938 C 17.109375 20.492188 16.902344 20.183594 16.636719 19.917969 C 16.371094 19.65625 16.066406 19.449219 15.71875 19.304688 C 15.375 19.164062 15.011719 19.089844 14.636719 19.089844 Z M 14.636719 22.863281 C 14.375 22.863281 14.152344 22.773438 13.96875 22.585938 C 13.785156 22.402344 13.695312 22.179688 13.695312 21.921875 C 13.695312 21.660156 13.785156 21.4375 13.96875 21.253906 C 14.152344 21.070312 14.375 20.976562 14.636719 20.976562 C 14.898438 20.976562 15.121094 21.070312 15.304688 21.253906 C 15.488281 21.4375 15.582031 21.660156 15.582031 21.921875 C 15.582031 22.179688 15.488281 22.402344 15.304688 22.585938 C 15.121094 22.773438 14.898438 22.863281 14.636719 22.863281 Z M 14.636719 22.863281 " fill-opacity="1" fill-rule="nonzero"/></svg>